PathFileType	4	(X/Y/Z)	C:\Users\chris\Documents\GitHub\baseballds\vids\pitch5_Sports2D\pitch5_Sports2D_px_person06.trc
DataRate	CameraRate	NumFrames	NumMarkers	Units	OrigDataRate	OrigDataStartFrame	OrigNumFrames
30	30	10	22	m	30	18	149
Frame#	Time	Hip			RHip			RKnee			RAnkle			RBigToe			RSmallToe			RHeel			LHip			LKnee			LAnkle			LBigToe			LSmallToe			LHeel			Neck			Head			Nose			RShoulder			RElbow			RWrist			LShoulder			LElbow			LWrist		
		X1	Y1	Z1	X2	Y2	Z2	X3	Y3	Z3	X4	Y4	Z4	X5	Y5	Z5	X6	Y6	Z6	X7	Y7	Z7	X8	Y8	Z8	X9	Y9	Z9	X10	Y10	Z10	X11	Y11	Z11	X12	Y12	Z12	X13	Y13	Z13	X14	Y14	Z14	X15	Y15	Z15	X16	Y16	Z16	X17	Y17	Z17	X18	Y18	Z18	X19	Y19	Z19	X20	Y20	Z20	X21	Y21	Z21	X22	Y22	Z22
18	0.6	840.2272674523763	553.3519208756136	0.0	860.9824328881747	554.2543194319708	0.0	880.8351999415303	611.1054270575121	0.0	899.7855684849436	684.1997080375554	0.0	906.1023579963035	672.4685274247723	0.0	921.4431324764448	684.1997082200005	0.0	895.2735760150736	693.2236933403397	0.0	818.5697035120376	555.1567179676631	0.0	799.6193349784241	630.0557960752178	0.0	799.6193350843239	690.5164976968344	0.0	802.4354530568035	1023.1760109609655	0.0	838.3036787345809	1025.1686901692087	0.0	862.2158290988044	991.2931436509941	0.0	829.3984854300447	430.6257207760775	0.0	843.8368615616104	390.01778678780624	0.0	865.4944257896797	414.3825471804537	0.0	860.0800342585752	443.2593002565668	0.0	891.6639818045426	474.8432490349759	0.0	931.369516266974	504.62240029695084	0.0	800.5217335688307	451.38088697620003	0.0	871.8112155108417	478.4528431243408	0.0	915.1263435557555	497.40321218223596	0.0
19	0.6333333333333333	840.2272670582669	553.3519209444378	0.0	860.9824321962567	554.2543195546667	0.0	880.8351991217428	611.1054277634985	0.0	899.7855675334998	684.1997091448497	0.0	906.1023570079763	672.4685288298974	0.0	921.443131303514	684.1997095655561	0.0	895.2735751247071	693.2236945018813	0.0	818.5697034150405	555.1567180940807	0.0	799.619335031131	630.055796708032	0.0	799.6193352862226	690.5164987625484	0.0	802.4354530764381	1023.1760110958095	0.0	838.3036787767164	1025.1686903051827	0.0	862.2158290205493	991.2931437459491	0.0	829.3984851036541	430.62572019273114	0.0	843.8368612974933	390.0177858449302	0.0	865.49442561684	414.3825464603095	0.0	860.0800334106439	443.25929981745384	0.0	891.6639806949128	474.843249052131	0.0	931.3695153625605	504.62240016133165	0.0	800.521733722819	451.380886506847	0.0	871.8112155438941	478.45284310508123	0.0	915.1263432368876	497.4032121691046	0.0
20	0.6666666666666666	840.2272679314397	553.3519208683974	0.0	860.9824337361495	554.2543194011392	0.0	880.8352009543554	611.1054262478569	0.0	899.7855696687324	684.1997066353647	0.0	906.1023592634215	672.4685255975966	0.0	921.4431339668166	684.199706497569	0.0	895.273577043504	693.2236918881933	0.0	818.5697036113413	555.1567179057773	0.0	799.6193348994693	630.0557953061164	0.0	799.6193348400441	690.5164963318006	0.0	802.4354530369145	1023.176010762387	0.0	838.3036786989865	1025.16868995298	0.0	862.2158291670089	991.2931436011588	0.0	829.3984857867888	430.6257215324375	0.0	843.8368619398308	390.017788081759	0.0	865.4944260664539	414.3825481664183	0.0	860.0800353303131	443.2593008330545	0.0	891.6639831927982	474.8432490166491	0.0	931.3695173537666	504.622400488616	0.0	800.5217333282105	451.38088758163474	0.0	871.811215443784	478.45284311033527	0.0	915.126344012444	497.403212188844	0.0
21	0.7	840.2272715918747	553.3519203734265	0.0	860.9824401756251	554.254318484826	0.0	880.8352085992375	611.1054197823013	0.0	899.7855785570422	684.1996962448926	0.0	906.1023685669454	672.4685123221109	0.0	921.4431449827565	684.1996938363751	0.0	895.2735852114618	693.223681024045	0.0	818.5697044771322	555.1567169048323	0.0	799.6193343818422	630.055789428854	0.0	799.6193329669868	690.5164863022591	0.0	802.4354528620586	1023.176009444553	0.0	838.3036783371222	1025.1686885939343	0.0	862.2158298430311	991.2931428430026	0.0	829.3984887427703	430.6257270396793	0.0	843.8368645008009	390.0177971180387	0.0	865.4944277975932	414.38255506370945	0.0	860.0800432832079	443.2593049920937	0.0	891.6639935733082	474.8432488620823	0.0	931.3695257301043	504.62240179882593	0.0	800.5217317971437	451.38089200679815	0.0	871.8112150860713	478.45284321860584	0.0	915.1263471044188	497.40321229315407	0.0
22	0.7333333333333333	840.2272740403914	553.351919827684	0.0	860.9824444636865	554.2543175396753	0.0	880.8352136671689	611.1054153211768	0.0	899.7855844260356	684.1996894523891	0.0	906.1023746055901	672.4685037765526	0.0	921.4431521700689	684.1996856109338	0.0	895.273590826369	693.2236738698064	0.0	818.5697051085056	555.1567159775663	0.0	799.6193340773943	630.0557854971275	0.0	799.6193317108712	690.5164797887761	0.0	802.4354527339251	1023.1760086603806	0.0	838.3036780511957	1025.1686878278983	0.0	862.2158303708193	991.2931421516935	0.0	829.398490832395	430.6257305908258	0.0	843.8368660533378	390.01780274743334	0.0	865.4944287683509	414.38255936688375	0.0	860.0800484878113	443.2593076541792	0.0	891.6640004062484	474.843248751597	0.0	931.3695313684681	504.62240259995735	0.0	800.5217309230433	451.3808948688328	0.0	871.811214922272	478.4528433960935	0.0	915.1263489786961	497.4032123891934	0.0
23	0.7666666666666666	840.2272599677667	553.3519213255414	0.0	860.9824196703767	554.2543204355319	0.0	880.835184189745	611.105439921082	0.0	899.7855501103217	684.1997296966374	0.0	906.1023384895939	672.4685554458893	0.0	921.4431094767064	684.1997347472769	0.0	895.2735597098892	693.2237158504074	0.0	818.5697018785238	555.1567193393747	0.0	799.6193361463056	630.0558080917488	0.0	799.6193389058406	690.5165187163525	0.0	802.4354533850841	1023.1760139105253	0.0	838.3036793596029	1025.1686933227306	0.0	862.2158279144803	991.2931447188963	0.0	829.3984796800316	430.6257091676423	0.0	843.8368559046877	390.0177672239091	0.0	865.4944217596296	414.38253226410234	0.0	860.0800176953311	443.2592914382912	0.0	891.663960289185	474.84324933244625	0.0	931.3694992320885	504.62239742075127	0.0	800.5217370924295	451.3808776712176	0.0	871.8112164399456	478.4528431781133	0.0	915.1263367254508	497.40321203773584	0.0
24	0.8	840.2272209068731	553.3519269391963	0.0	860.9823509840182	554.2543307270909	0.0	880.8351026812373	611.1055091262688	0.0	899.7854553804915	684.1998403305325	0.0	906.1022394960373	672.4686965928505	0.0	921.4429922048168	684.1998694793931	0.0	895.2734723149697	693.2238316083301	0.0	818.569692558842	555.1567304189058	0.0	799.6193416053522	630.0558708091751	0.0	799.619358898382	690.5166254406186	0.0	802.4354552682553	1023.1760278228128	0.0	838.3036832889034	1025.1687076041533	0.0	862.2158205837468	991.2931530939175	0.0	829.3984479628211	430.62565060441887	0.0	843.8368288244245	390.01767143839135	0.0	865.494403575838	414.38245914231953	0.0	860.0799330071947	443.2592472421435	0.0	891.6638496887985	474.8432509928085	0.0	931.3694097927096	504.62238355572566	0.0	800.521753198683	451.38083060132624	0.0	871.8112201404721	478.45284186035747	0.0	915.1263040304909	497.4032108840364	0.0
25	0.8333333333333334	840.2272190610307	553.3519298835047	0.0	860.982347980276	554.2543353597945	0.0	880.8350994016175	611.1055140967884	0.0	899.7854518590591	684.1998435887224	0.0	906.1022371222068	672.4686990866729	0.0	921.4429889271875	684.1998728032446	0.0	895.2734662973951	693.2238356688852	0.0	818.5696914665093	555.1567341590633	0.0	799.6193413416147	630.0558737771948	0.0	799.6193598830935	690.5166280449127	0.0	802.4354554966554	1023.1760272652809	0.0	838.3036840221275	1025.1687064936414	0.0	862.2158192939223	991.2931557882714	0.0	829.3984450620615	430.62564949352327	0.0	843.8368295483277	390.01767209284895	0.0	865.4944050533107	414.38245956251444	0.0	860.0799304430251	443.25924665077866	0.0	891.6638458443298	474.84325115980255	0.0	931.3694051254662	504.62238384017445	0.0	800.5217520870023	451.38082960039367	0.0	871.8112193732825	478.4528404867865	0.0	915.1263049066335	497.4032105017077	0.0
26	0.8666666666666667	840.2274150555389	553.3519067717103	0.0	860.9826930822728	554.2542915448834	0.0	880.8355094636972	611.1051700567588	0.0	899.7859289840216	684.1992847474362	0.0	906.1027381870083	672.4679829775131	0.0	921.4435816309812	684.1991910200504	0.0	895.2739012536088	693.2232521741548	0.0	818.5697369992957	555.1566846357621	0.0	799.6193129654189	630.0555590901813	0.0	799.6192596426013	690.5160879355079	0.0	802.4354463106149	1023.1759551652917	0.0	838.3036653394895	1025.1686314649992	0.0	862.2158542967733	991.2931181029217	0.0	829.3986015627836	430.62594647028914	0.0	843.8369692090563	390.01816248943913	0.0	865.4945007032363	414.3828337768989	0.0	860.0803580931075	443.259471237568	0.0	891.6644034081162	474.84324299573154	0.0	931.3698530706463	504.62245518346464	0.0	800.5216677370297	451.3810680900368	0.0	871.8111990274997	478.45284462426764	0.0	915.1264735280276	497.4032156719695	0.0
27	0.9	840.227794346751	553.3518481209062	0.0	860.983359670139	554.2541852024832	0.0	880.8363000477754	611.1044954289281	0.0	899.7868473585789	684.1982135088625	0.0	906.1036958782481	672.466618859391	0.0	921.4447168713803	684.1978874402523	0.0	895.2747527981614	693.2221303140682	0.0	818.5698285034134	555.1565720790483	0.0	799.6192607630524	630.0549500814097	0.0	799.6190654481859	690.515055385549	0.0	802.4354278090675	1023.175821951324	0.0	838.3036263386855	1025.1684955482988	0.0	862.2159269382175	991.2930332265747	0.0	829.3989117118529	430.626512573691	0.0	843.8372290684871	390.01908458351295	0.0	865.4946736607218	414.3835378177713	0.0	860.0811782141315	443.2598980793723	0.0	891.66547522993	474.8432267363529	0.0	931.3707222309846	504.62258836404436	0.0	800.5215142358471	451.38152325976614	0.0	871.8111645505211	478.4528594467938	0.0	915.1267872621918	497.4032273813567	0.0
